
        <svg xmlns="http://www.w3.org/2000/svg" width="210mm" height="297mm" viewBox="0 0 1050 1500" preserveAspectRatio="xMidYMid meet">
            
            <!-- White Background -->
            <rect x="0" y="0" width="1050" height="1500" fill="white"/>
            
            <!-- Blue Border -->
            <rect x="50" y="50" width="950" height="1000" fill="none" stroke="#007DC5" stroke-width="10" rx="10"/>
            
            <!-- UBL PAY Logo -->
            <g transform="translate(460, 100) scale(1)" fill="#007DC5" stroke="none">
                <svg xmlns="http://www.w3.org/2000/svg" width="100" height="100" fill="none" xmlns:v="https://vecta.io/nano"><path fill="#0075bf" d="M0 0h100v100H0z"/><g fill="#fff"><path d="M39.351 53.017H26.579a3.37 3.37 0 0 1-3.363-3.363V38.475a1.201 1.201 0 1 1 2.402 0v11.178a.96.96 0 0 0 .961.961H39.35a.96.96 0 0 0 .961-.961V38.475a1.201 1.201 0 1 1 2.402 0v11.178a3.37 3.37 0 0 1-3.363 3.363zm48.698-1.202a1.2 1.2 0 0 1-1.201 1.201h-12.77a3.37 3.37 0 0 1-3.363-3.363V38.475a1.201 1.201 0 1 1 2.402 0v11.178a.96.96 0 0 0 .961.961h12.771a1.2 1.2 0 0 1 1.201 1.201zm-25.65-5.219H48.064v-2.402h14.335c1.187 0 1.561-.431 1.561-.961v-2.566c0-.53-.418-.961-1.561-.961H48.064v-2.402h14.335c2.528 0 3.964 1.509 3.964 3.363v2.566c0 1.855-1.133 3.364-3.964 3.364z"/><path d="M62.399 53.487H48.064v-2.402h14.335c1.316 0 1.561-.431 1.561-.961v-2.566c0-.53-.591-.961-1.561-.961H48.064v-2.402h14.335c2.398 0 3.964 1.509 3.964 3.363v2.566c0 1.855-1.133 3.363-3.964 3.363z"/><path d="M49.265 52.285a1.201 1.201 0 1 1-2.403 0V38.504a1.201 1.201 0 1 1 2.403 0v13.782zm9.047 9.005c-22.807.154-41.347-7.357-41.411-16.777s18.373-17.181 41.181-17.334c6.692-.045 13.013.572 18.61 1.702 1.392.281 1.423.196.043-.13-6.461-1.528-13.958-2.404-21.958-2.404-24.277 0-43.957 8.05-43.957 17.98S30.5 62.308 54.777 62.308c13.415 0 25.419-2.46 33.479-6.336 1.687-.811 1.619-.931-.082-.179-7.498 3.313-18.096 5.419-29.863 5.499z"/><path d="M78.839 28.973a2.1 2.1 0 1 1-4.204 0c0-1.161.942-2.102 2.102-2.102s2.102.941 2.102 2.102zm-62.54 42.818l-.391-3.737h.612l.169 1.679.067.943.021.426.18-.551.236-.547.89-1.95h.693l.123 1.869.035 1.136c.117-.314.308-.751.574-1.309l.802-1.697h.637l-1.826 3.737h-.662l-.141-2.193-.021-.795-.341.813-.989 2.175h-.669zm4.205 0l1.077-5.159h.637l-.412 1.981c.237-.23.457-.395.662-.495a1.42 1.42 0 0 1 .63-.15c.31 0 .55.082.721.245a.85.85 0 0 1 .257.646c0 .131-.038.373-.113.725l-.461 2.206h-.637l.475-2.263.102-.619c0-.122-.042-.222-.127-.299s-.206-.116-.366-.116c-.23 0-.449.06-.658.181s-.372.286-.491.496-.227.548-.326 1.015l-.334 1.605h-.637zm4.615-2.196h2.097l.003-.141c0-.319-.079-.564-.239-.734s-.365-.255-.616-.255a1.13 1.13 0 0 0-.744.282c-.224.188-.391.47-.501.848zm1.851.926l.619.063c-.089.307-.294.6-.614.876s-.702.415-1.145.415c-.277 0-.531-.064-.762-.192a1.26 1.26 0 0 1-.528-.558c-.121-.244-.181-.522-.181-.834a2.66 2.66 0 0 1 .284-1.188c.189-.384.433-.669.734-.855a1.82 1.82 0 0 1 .975-.28c.446 0 .802.139 1.068.415s.399.655.399 1.133a3.32 3.32 0 0 1-.049.563h-2.752a1.55 1.55 0 0 0-.014.197c0 .349.08.616.241.8s.357.276.589.276c.218 0 .433-.072.644-.215a1.4 1.4 0 0 0 .493-.619zm.975 1.27l.781-3.737h.563l-.158.764c.192-.288.38-.502.565-.641s.373-.208.565-.208c.127 0 .283.046.468.137l-.26.591c-.11-.08-.231-.12-.363-.12-.223 0-.452.124-.686.373s-.419.696-.553 1.341l-.317 1.499h-.605zm3.005-2.196h2.097l.004-.141c0-.319-.08-.564-.239-.734s-.365-.255-.616-.255a1.13 1.13 0 0 0-.744.282c-.224.188-.391.47-.502.848zm1.851.926l.619.063c-.089.307-.294.6-.614.876s-.702.415-1.145.415c-.277 0-.531-.064-.762-.192a1.26 1.26 0 0 1-.528-.558c-.121-.244-.181-.522-.181-.834a2.66 2.66 0 0 1 .283-1.188c.189-.384.433-.669.734-.855a1.82 1.82 0 0 1 .975-.28c.446 0 .802.139 1.068.415s.399.655.399 1.133a3.32 3.32 0 0 1-.049.563h-2.752a1.55 1.55 0 0 0-.014.197c0 .349.081.616.241.8s.357.276.59.276c.218 0 .433-.072.644-.215a1.4 1.4 0 0 0 .493-.619zm3.152-3.09h1.174l.296 2.172.123 1.174c.153-.446.364-.917.632-1.412l1.043-1.934h1.248l-2.693 4.787-.523.834c-.127.159-.281.283-.46.374s-.395.136-.647.136-.53-.044-.842-.131l.103-.879c.142.041.281.062.415.062.361 0 .658-.274.891-.821l-.76-4.36zm7.505 1.708c0-.279-.081-.504-.244-.671s-.373-.253-.631-.253a1.05 1.05 0 0 0-.677.236c-.197.157-.35.386-.46.685s-.164.576-.164.827c0 .312.085.56.255.743s.383.275.64.275c.323 0 .594-.138.813-.415.312-.391.468-.867.468-1.429zm-3.358.842c0-.808.227-1.452.684-1.932s1.054-.721 1.796-.721c.643 0 1.145.177 1.507.532s.542.831.542 1.43c0 .706-.226 1.317-.677 1.831s-1.056.772-1.815.772c-.411 0-.775-.082-1.092-.246a1.61 1.61 0 0 1-.71-.698 2.08 2.08 0 0 1-.234-.969zm5.531-2.55h1.178l-.538 2.583-.099.579a.44.44 0 0 0 .14.325c.093.091.212.135.357.135.104 0 .206-.02.308-.06a1.32 1.32 0 0 0 .312-.181 1.66 1.66 0 0 0 .287-.277c.085-.104.164-.241.238-.411.052-.126.108-.331.168-.616l.435-2.078h1.178l-.911 4.36h-1.1l.123-.591c-.482.463-1.006.694-1.573.694-.358 0-.64-.103-.845-.308s-.308-.48-.308-.825c0-.151.046-.45.139-.899l.509-2.431zm8.379 2.998l.637.067c-.16.467-.387.814-.681 1.04s-.629.34-1.005.34c-.406 0-.735-.131-.987-.394s-.378-.63-.378-1.102a3.14 3.14 0 0 1 .243-1.203c.162-.394.394-.694.695-.899a1.79 1.79 0 0 1 1.033-.308c.401 0 .719.113.954.34s.352.526.352.899l-.626.042c-.002-.237-.071-.422-.206-.556s-.312-.2-.533-.2c-.256 0-.477.081-.665.243s-.335.408-.442.737-.16.647-.16.952c0 .319.07.558.211.718s.314.239.521.239.404-.079.593-.236.337-.396.445-.718z"/><path d="M55.495 70.31c0 .352.085.619.253.801a.84.84 0 0 0 .644.273 1.05 1.05 0 0 0 .405-.083 1.17 1.17 0 0 0 .373-.252c.115-.113.213-.241.294-.385s.146-.3.195-.466c.073-.232.109-.455.109-.669 0-.338-.085-.6-.255-.786a.83.83 0 0 0-.642-.28 1.07 1.07 0 0 0-.546.143c-.164.095-.312.234-.445.417s-.23.396-.292.639a2.65 2.65 0 0 0-.093.649zm-.637.064c0-.73.215-1.334.644-1.812.354-.394.819-.591 1.394-.591.45 0 .814.141 1.089.422s.413.662.413 1.141a2.79 2.79 0 0 1-.26 1.198c-.173.369-.42.653-.741.85a1.9 1.9 0 0 1-1.012.296 1.69 1.69 0 0 1-.793-.186 1.29 1.29 0 0 1-.546-.528c-.125-.227-.188-.49-.188-.788zm3.604 1.417l.781-3.737h.637l-.13.616c.237-.265.449-.448.635-.549s.389-.151.607-.151a.91.91 0 0 1 .582.185c.156.123.259.295.308.515.19-.235.39-.41.6-.526a1.35 1.35 0 0 1 .663-.174c.312 0 .546.074.702.222s.234.355.234.623a3.28 3.28 0 0 1-.081.57l-.503 2.407h-.637l.514-2.471c.045-.202.067-.346.067-.433a.37.37 0 0 0-.116-.289.47.47 0 0 0-.327-.105c-.19 0-.384.057-.581.172a1.25 1.25 0 0 0-.459.452c-.109.186-.205.473-.287.86l-.38 1.812h-.637l.528-2.523c.038-.171.056-.293.056-.366 0-.122-.038-.22-.114-.295s-.175-.113-.297-.113c-.181 0-.37.057-.568.172s-.36.275-.484.48-.226.498-.306.878l-.37 1.767h-.637zm6.613-2.196h2.097l.004-.141c0-.319-.08-.564-.239-.734s-.365-.255-.616-.255a1.13 1.13 0 0 0-.744.282c-.224.188-.391.47-.501.848zm1.851.926l.619.063c-.089.307-.294.6-.614.876s-.702.415-1.145.415c-.277 0-.531-.064-.762-.192a1.26 1.26 0 0 1-.528-.558c-.121-.244-.181-.522-.181-.834a2.66 2.66 0 0 1 .283-1.188c.189-.384.433-.669.734-.855a1.82 1.82 0 0 1 .975-.28c.446 0 .802.139 1.068.415s.4.655.4 1.133a3.32 3.32 0 0 1-.049.563h-2.752c-.01.073-.014.138-.014.197 0 .349.08.616.241.8s.357.276.59.276c.218 0 .433-.072.644-.215a1.4 1.4 0 0 0 .493-.619zm5.825-3.09l-.181.862h-.834l-.731 3.498h-1.178l.731-3.498h-.657l.181-.862h.657l.094-.447c.077-.366.149-.615.218-.743.093-.175.232-.314.416-.416s.426-.154.725-.154a3.65 3.65 0 0 1 1.141.197l-.229.841c-.282-.096-.511-.144-.686-.144-.135 0-.234.042-.3.127-.044.054-.089.198-.136.431l-.066.308h.834z"/><path d="M73.433 65.772h1.178l-.222 1.068H73.21l.222-1.068zm-.345 1.659h1.178l-.911 4.36h-1.178l.911-4.36zm1.934 0h1.1l-.177.846c.411-.632.855-.948 1.335-.948.169 0 .352.042.546.127l-.452.965c-.107-.038-.221-.057-.341-.057-.202 0-.408.077-.619.23s-.372.358-.49.614-.234.661-.349 1.217l-.288 1.367H74.11l.912-4.36zm1.938 3.141l1.141-.181c.102.241.227.411.378.511s.356.15.616.15c.269 0 .484-.06.645-.181.112-.082.168-.182.168-.3 0-.079-.029-.151-.087-.213s-.223-.135-.488-.222c-.712-.235-1.152-.422-1.322-.558a1.02 1.02 0 0 1-.399-.838c0-.345.129-.642.386-.891.359-.348.891-.521 1.597-.521.562 0 .986.103 1.273.308a1.34 1.34 0 0 1 .546.834l-1.088.189c-.058-.159-.151-.278-.279-.357-.175-.107-.385-.16-.632-.16s-.423.041-.531.123-.163.177-.163.283.055.2.165.271c.069.044.288.12.661.23.575.167.96.331 1.154.493.274.227.411.501.411.821 0 .414-.174.772-.521 1.076s-.838.456-1.47.456-1.116-.116-1.459-.347-.577-.556-.7-.975z"/><path d="M81.747 68.305l.181-.875h.575l.144-.698 1.351-.813-.316 1.511h.718l-.181.875h-.722l-.381 1.827-.103.566c0 .09.029.161.086.211s.162.076.312.076a5.97 5.97 0 0 0 .39-.029l-.184.875c-.202.041-.411.061-.624.061-.416 0-.719-.081-.907-.24s-.284-.383-.284-.668c0-.134.05-.443.152-.928l.365-1.753h-.571z"/></g></svg>
            </g>

            <!-- "Simply Scan to Pay" Text -->
            <g transform="translate(0, 60)">
                <text x="50%" y="220" text-anchor="middle" font-size="36" margin-top="30" font-weight="bold" fill="#000">
                    Simply Scan to Pay
                </text>
            </g>
            
            <!-- QR Code -->
            <g transform="translate(335, 300)"> 
                <svg xmlns="http://www.w3.org/2000/svg" width="380" height="380" viewBox="0 0 51 51" shape-rendering="crispEdges"><path fill="#ffffff" d="M0 0h51v51H0z"/><path stroke="#000000" d="M1 1.5h7m1 0h6m2 0h3m1 0h1m4 0h1m1 0h1m3 0h2m2 0h3m2 0h1m1 0h7M1 2.5h1m5 0h1m4 0h1m6 0h2m1 0h1m1 0h2m1 0h4m1 0h5m2 0h3m1 0h1m5 0h1M1 3.5h1m1 0h3m1 0h1m2 0h1m1 0h1m2 0h3m2 0h1m2 0h4m1 0h3m2 0h4m3 0h2m1 0h1m1 0h3m1 0h1M1 4.5h1m1 0h3m1 0h1m1 0h6m1 0h1m2 0h2m1 0h1m1 0h2m1 0h3m1 0h3m4 0h1m1 0h1m2 0h1m1 0h3m1 0h1M1 5.5h1m1 0h3m1 0h1m1 0h5m3 0h2m1 0h2m1 0h5m2 0h5m1 0h1m6 0h1m1 0h3m1 0h1M1 6.5h1m5 0h1m1 0h1m2 0h3m1 0h1m1 0h2m1 0h1m1 0h1m3 0h1m3 0h1m4 0h1m2 0h1m3 0h1m5 0h1M1 7.5h7m1 0h1m1 0h1m1 0h1m1 0h1m1 0h1m1 0h1m1 0h1m1 0h1m1 0h1m1 0h1m1 0h1m1 0h1m1 0h1m1 0h1m1 0h1m1 0h1m1 0h1m1 0h7M9 8.5h1m1 0h2m3 0h2m1 0h1m2 0h2m3 0h1m1 0h1m4 0h3m1 0h4M1 9.5h1m3 0h1m1 0h3m2 0h2m2 0h1m1 0h3m2 0h6m1 0h1m1 0h3m2 0h1m2 0h7m2 0h1M1 10.5h2m1 0h1m3 0h1m3 0h1m1 0h1m1 0h1m1 0h1m2 0h2m2 0h1m1 0h5m2 0h1m3 0h2m2 0h1m1 0h1m4 0h1M1 11.5h3m1 0h1m1 0h1m3 0h3m1 0h1m3 0h1m2 0h1m5 0h2m2 0h2m2 0h3m1 0h1m2 0h6M2 12.5h2m1 0h1m2 0h1m1 0h3m1 0h2m2 0h7m3 0h1m4 0h1m1 0h2m1 0h2m2 0h1m2 0h1m1 0h2M5 13.5h1m1 0h2m1 0h2m1 0h3m1 0h2m1 0h2m1 0h1m1 0h3m2 0h1m2 0h6m3 0h3m4 0h1M3 14.5h1m4 0h4m1 0h2m1 0h1m2 0h1m2 0h1m1 0h2m2 0h3m1 0h1m1 0h1m7 0h1m6 0h1M2 15.5h2m3 0h1m1 0h1m3 0h2m3 0h1m2 0h4m1 0h4m2 0h1m5 0h3m2 0h1m2 0h1m1 0h1M1 16.5h1m4 0h1m2 0h9m2 0h3m1 0h2m1 0h1m1 0h2m2 0h1m2 0h1m1 0h2m1 0h1m4 0h3M5 17.5h3m1 0h1m3 0h1m1 0h1m1 0h1m1 0h1m5 0h3m1 0h4m1 0h1m1 0h1m3 0h2m1 0h3m3 0h1M1 18.5h2m1 0h2m2 0h4m1 0h1m1 0h2m2 0h4m3 0h3m1 0h4m1 0h1m1 0h1m1 0h2m2 0h3M1 19.5h1m2 0h5m2 0h1m3 0h3m1 0h1m2 0h1m1 0h3m1 0h2m1 0h1m1 0h1m1 0h2m3 0h1m8 0h1M1 20.5h1m1 0h4m1 0h2m1 0h3m3 0h2m2 0h1m1 0h1m4 0h3m2 0h3m1 0h2m2 0h4m1 0h3M2 21.5h1m1 0h2m1 0h1m5 0h2m3 0h2m1 0h1m2 0h4m1 0h2m3 0h2m1 0h2m4 0h1m3 0h1M3 22.5h4m1 0h1m1 0h1m1 0h3m3 0h1m2 0h1m2 0h1m1 0h1m2 0h1m3 0h1m4 0h3m2 0h4M1 23.5h2m2 0h15m1 0h1m1 0h8m2 0h2m2 0h2m2 0h5m1 0h2M1 24.5h1m3 0h1m3 0h3m1 0h1m3 0h1m4 0h2m3 0h1m4 0h4m2 0h4m3 0h2M2 25.5h1m2 0h1m1 0h1m1 0h1m3 0h1m2 0h8m1 0h1m1 0h1m2 0h2m4 0h3m2 0h1m1 0h1m1 0h1M3 26.5h1m1 0h1m3 0h1m2 0h1m4 0h4m1 0h2m3 0h3m1 0h1m1 0h2m2 0h1m1 0h3m3 0h2m1 0h2M4 27.5h6m3 0h1m1 0h4m1 0h9m5 0h1m2 0h2m2 0h7m1 0h1M1 28.5h1m2 0h1m7 0h2m1 0h1m1 0h1m1 0h2m1 0h1m1 0h1m3 0h1m1 0h1m2 0h2m1 0h5m3 0h1m1 0h3M5 29.5h1m1 0h1m3 0h3m3 0h1m3 0h1m2 0h4m2 0h1m1 0h2m3 0h1m1 0h1m2 0h1m1 0h2m1 0h1M1 30.5h2m2 0h1m2 0h1m1 0h2m1 0h2m1 0h1m3 0h2m3 0h1m3 0h1m1 0h1m3 0h2m1 0h9m2 0h1M1 31.5h3m1 0h1m1 0h1m3 0h4m1 0h1m1 0h1m1 0h1m3 0h2m1 0h1m1 0h1m1 0h1m2 0h3m4 0h2m2 0h1M2 32.5h4m2 0h2m2 0h1m3 0h1m5 0h1m1 0h3m2 0h2m1 0h3m1 0h3m1 0h1m1 0h1m1 0h1m1 0h2M3 33.5h1m1 0h3m1 0h2m1 0h3m1 0h1m1 0h1m1 0h1m3 0h5m2 0h2m1 0h2m1 0h1m2 0h3m1 0h1m1 0h4M1 34.5h1m2 0h1m1 0h1m4 0h3m2 0h5m4 0h4m2 0h5m3 0h3m2 0h3m1 0h1M1 35.5h3m3 0h1m1 0h1m4 0h2m1 0h4m1 0h2m6 0h2m3 0h2m1 0h2m2 0h1m1 0h5M4 36.5h2m2 0h2m1 0h1m1 0h2m4 0h2m1 0h3m3 0h1m4 0h1m1 0h1m2 0h1m1 0h1m3 0h4m1 0h1M1 37.5h1m1 0h3m1 0h7m1 0h3m3 0h1m3 0h2m6 0h1m1 0h4m1 0h5m4 0h1M1 38.5h2m2 0h1m4 0h3m2 0h1m3 0h3m1 0h1m2 0h2m3 0h3m4 0h2m1 0h2m2 0h3M2 39.5h1m3 0h3m3 0h2m2 0h1m1 0h1m2 0h4m1 0h6m2 0h1m2 0h5m2 0h6M2 40.5h3m3 0h2m4 0h1m1 0h1m3 0h5m1 0h5m1 0h2m1 0h1m2 0h3m5 0h1M1 41.5h3m3 0h2m1 0h1m3 0h1m1 0h4m2 0h6m3 0h1m1 0h1m1 0h2m1 0h2m1 0h5M9 42.5h7m1 0h1m4 0h2m3 0h1m4 0h2m1 0h1m1 0h1m1 0h3m3 0h1m1 0h1M1 43.5h7m1 0h1m1 0h1m2 0h1m1 0h1m3 0h1m2 0h1m1 0h1m1 0h1m2 0h1m2 0h1m4 0h4m1 0h1m1 0h2m2 0h1M1 44.5h1m5 0h1m2 0h2m4 0h1m6 0h1m3 0h2m1 0h2m1 0h1m1 0h1m1 0h5m3 0h2m2 0h1M1 45.5h1m1 0h3m1 0h1m1 0h3m3 0h1m1 0h1m2 0h9m1 0h2m1 0h3m1 0h2m2 0h5m2 0h2M1 46.5h1m1 0h3m1 0h1m2 0h1m1 0h1m6 0h1m5 0h3m1 0h1m1 0h2m6 0h3m4 0h2m1 0h1M1 47.5h1m1 0h3m1 0h1m2 0h2m1 0h1m2 0h1m2 0h1m1 0h4m4 0h1m2 0h1m1 0h2m2 0h2m1 0h2m5 0h1M1 48.5h1m5 0h1m9 0h6m2 0h1m1 0h1m2 0h1m2 0h2m1 0h1m2 0h2m1 0h2m1 0h1M1 49.5h7m1 0h2m2 0h1m1 0h1m7 0h1m1 0h3m1 0h1m1 0h12m1 0h1m4 0h1"/></svg>

            </g>

            <!-- Business Name -->
            <g transform="translate(0,-20)">
                <text x="50%" y="760" text-anchor="middle" font-size="48" font-weight="bold" fill="#000">
                    MUHAMMAD ABBAS
                </text>
            </g>

            <g transform="translate(0,-30)">
                <!-- Till Code Label and Value Background -->
                <rect x="380" y="810" width="290" height="55" fill="#007DC5" rx="15"/>
                
                <!-- Till Code Text -->
                <text x="50%" y="845" text-anchor="middle" font-size="25" font-weight="bold" fill="white">
                    Till Code: 770047337
                </text>
            </g>
            <!-- Raast Logo (Left) -->
            <g transform="translate(300, 900) scale(1)">
               <svg xmlns="http://www.w3.org/2000/svg" width="150" height="300" viewBox="0 0 20 100" fill="none" xmlns:v="https://vecta.io/nano"><path d="M7.247 9.478c-.029-.258-.202-.436-.323-.643l-.646-1.039c-.04-.063-.052-.132-.029-.212h17.135c-.012.034-.012.063-.023.092l-.577 1.125-.265.528c-.023.046-.029.098-.046.155L7.247 9.478z" fill="url(#A)"/><path d="M24.457 16.122l-.15.189-.19-.126c-.612-.35-1.258-.637-1.928-.856l-.975-.31c-.594-.184-1.201-.322-1.812-.448l-1.125-.207-1.068-.149-.877-.098c-.554-.086-1.108-.126-1.662-.161l-1.339-.075c-.133-.006-.26-.023-.393.034-.081.035-.19.012-.289.006l-.883-.052c-.485-.052-.97-.006-1.449-.006l-1.137.011-.525.034c-.046 0-.087 0-.133-.017.196-.057.398-.052.6-.069.214-.017.421-.011.635-.017l.623-.017.635-.006.629-.023.006-.149v-2.354c0-.063.017-.115.052-.166.162-.218.162-.373.006-.591a.25.25 0 0 1-.052-.178c.006-.052 0-.103-.006-.149 0-.017-.006-.034-.017-.063H8.436v.247c0 .057-.012.098-.052.138a.3.3 0 0 0-.058.063c-.127.167-.127.345.017.5.069.075.092.149.087.247l-.006 2.372c0 .063.012.126.017.19s-.017.098-.081.098l-.704.029-.317.029c-.139.006-.162-.017-.162-.155l.006-2.01v-.976a.23.23 0 0 0-.035-.126.42.42 0 0 1-.023-.522l-.046-.121c-.017-.058-.063-.115-.006-.167.063-.063.115-.149.225-.144l.15.006h14.723c.069 0 .139.006.208-.006.104-.017.156.034.196.115.035.08.04.161-.035.224-.012.011-.023.029-.04.046.127.178.115.356.017.54-.017.034-.023.08-.023.121l.012 3.526v.844c.675.247 1.339.511 1.951.907zm-3.434-1.355l.012-.063-.006-3.29c0-.149.006-.281.104-.413s.11-.304-.006-.436a.44.44 0 0 1-.11-.379c0-.017-.006-.034-.012-.069h-1.668l-1.685-.023v.253c0 .063-.017.115-.052.166-.15.195-.15.367 0 .563.04.052.052.103.052.161v2.797c0 .029.006.063.006.098 1.137.155 2.256.35 3.365.637zm-4.75-4.651c-.11-.057-.219-.046-.323-.04l-1.287.046h-1.039c-.179 0-.358-.011-.537-.011a.08.08 0 0 0-.11.109c0 .017 0 .034.006.057.006.098.006.19-.069.27-.017.017-.023.046-.04.075a.38.38 0 0 0 .058.482c.046.052.058.103.052.161l-.006 2.452c0 .023.006.052.011.069l1.097.057 1.091.046 1.085.086c0-.04.006-.063.006-.086l-.006-2.423c0-.172 0-.339.115-.494.092-.132.092-.299-.023-.419-.087-.092-.098-.19-.087-.299l.006-.138z" fill="url(#B)"/><path d="M7.281 3.679H22.46l-.012.086-.179.459c-.046.121-.029.247-.029.367l.017 1.212.017.511-.006.138H7.524c-.006-.052-.017-.092-.017-.132l.006-1.964c0-.075-.04-.149-.063-.224l-.167-.454zm.843 1.114l-.012 1.292c0 .052.029.075.081.069l.248-.006h2.949 3.515 3.792l2.476.006c.092 0 .104-.011.104-.103V4.867c0-.023-.012-.052-.017-.08l-13.136.006z" fill="url(#C)"/><path d="M14.178 1.956l.069-.695c.04-.322.098-.637.254-.924.075-.138.179-.258.329-.322.069-.029.121-.017.173.034a1.7 1.7 0 0 1 .381.54 2.06 2.06 0 0 1 .196.85v.471l.271.034 1.801.218 1.772.201 1.679.195c.069.006.139.023.208.029.087.006.104-.006.115-.098l.046-.408c.04-.224.104-.448.219-.649a.78.78 0 0 1 .369-.339c.017-.006.035-.006.069-.017l.006.758v.758.758H7.691l-.023-.023c-.006-.023-.006-.046-.006-.069l.006-2.165c0-.006.012-.017.017-.034.144-.006.271.052.387.144.144.109.231.258.283.431.069.224.092.448.087.678v.109c0 .006.012.017.017.029l5.719-.494z" fill="url(#D)"/><path d="M22.397 6.992h1.068c.011.161 0 .316.006.488-5.748 0-11.485 0-17.227-.006v-.448c.035-.006.063-.011.092-.011l.941.006c.087 0 .098-.011.104-.103.006-.098.017-.19.029-.287.012-.069.058-.092.133-.086l2.257.006h3.422l7.41.006h1.564c.081 0 .127.023.138.098a2.53 2.53 0 0 1 .064.339z" fill="url(#E)"/><path d="M11.177 12.591H8.926v-1.045c.023-.006.046-.011.075-.011l1.98.006c.058 0 .115-.006.196-.011v1.062z" fill="url(#F)"/><path d="M22.852 17.822l-.139.178-.716-.379-1.149-.477a20.2 20.2 0 0 0-2.158-.637l-1.881-.379c-.352-.069-.71-.109-1.068-.149l-1.483-.166c-.693-.086-1.391-.109-2.084-.144l-1.2-.04-1.604-.023-1.645.023-1.01.052-.496.006c-.075 0-.144.006-.219-.006l.277-.034 1.022-.052 1.339-.034 1.812-.034 1.991.052 1.714.103 1.241.109 1.085.144 1.241.195 1.524.327c.519.115 1.027.27 1.529.431l.635.23c.387.149.768.316 1.131.517l.312.189z" fill="url(#G)"/><path d="M23.533 16.915l-.144.184-.231-.138c-.491-.276-1.004-.5-1.535-.695a19.25 19.25 0 0 0-1.957-.597l-2.003-.413-1.697-.253-1.31-.126-1.876-.132-1.287-.04-1.408-.012-1.674.017-1.148.052-.456.011v-.034h.416c.098-.006.202-.029.3-.034l1.397-.046 1.674-.029 1.714.011 1.437.069 1.806.126 1.056.126 1.056.143 1.276.23.877.19c.762.189 1.512.402 2.245.689.467.184.929.385 1.362.643.04.006.069.029.11.057z" fill="url(#H)"/><path d="M22.483 9.564c-.006.057-.006.098-.006.144l-.098.011H14.79 7.616h-.265c-.104 0-.121-.023-.098-.149l15.231-.006z" fill="url(#I)"/><path d="M7.252 3.472c.035-.006.063-.011.098-.011h14.625.456c.087 0 .087.006.092.109-.017.006-.035.011-.052.011-1.812 0-3.619-.006-5.431-.006H7.593l-.277.006c-.075.006-.075-.04-.063-.109z" fill="url(#J)"/><path d="M20.463 12.591h-2.251V11.54h2.251v1.051z" fill="url(#K)"/><path d="M15.736 11.54v1.051c-.242.023-.485.006-.733.006h-.75-.756V11.54h1.114 1.125z" fill="url(#L)"/><g fill="#095434"><path d="M12.181 5.522c.011.017.023.029.029.046.098.161.017.322-.167.339-.098.006-.19 0-.3 0v-.718c.11 0 .219-.011.323 0 .162.023.214.149.133.293-.006.011-.012.029-.017.04zm-.312.069c.006.069-.006.132.023.167.023.029.092.023.139.017s.081-.04.081-.098c-.006-.052-.035-.086-.087-.086h-.156zm.104-.115c.081 0 .121-.029.127-.08.006-.057-.04-.086-.127-.086-.075 0-.098.023-.098.086s.04.086.098.08zm8.155-.281c.173-.029.173-.029.231.092l.115.247a.93.93 0 0 0 .058.098c.012-.006.017-.006.029-.011v-.436h.121v.712c-.156.017-.156.017-.213-.098l-.121-.276-.058-.103c-.058.086-.012.161-.017.235s0 .155 0 .23c-.11.034-.133.023-.133-.069l-.012-.62zm-6.671.431V5.19h.121v.701c-.139.046-.162.04-.219-.08l-.179-.396c-.058.086-.023.172-.029.247s0 .161 0 .247c-.069.017-.127.017-.127-.063v-.643c.167-.04.173-.034.231.098l.121.264c.011.029.035.052.052.075.011 0 .023-.006.029-.011zm1.212-.11c0-.006 0-.034.006-.069.023-.149.133-.258.271-.27s.271.063.317.207c.035.109.04.224-.011.333-.063.144-.202.218-.346.189-.121-.023-.225-.144-.242-.287 0-.017.006-.046.006-.103zm.467.034c-.006-.04-.012-.075-.023-.109-.017-.075-.075-.126-.139-.132-.075-.006-.121.04-.15.098-.04.092-.04.184 0 .276.029.063.075.103.15.098.069 0 .115-.046.139-.132.017-.029.017-.063.023-.098zm-1.212-.355l-.017.276c.04-.023.063-.034.081-.052l.104-.144c.052-.086.127-.115.231-.08-.052.121-.173.184-.248.299l.26.396c-.127.052-.162.04-.219-.057l-.092-.167c-.011-.017-.04-.034-.058-.046-.017.023-.04.046-.046.075s0 .075 0 .109c.006.121 0 .126-.144.103v-.706c.046-.006.087-.006.15-.006zm-2.626.259l-.006.155-.219-.017c-.058-.006-.081.029-.087.08 0 .057.011.103.081.103.058 0 .11 0 .167-.011.046-.006.086-.006.092.052s-.023.092-.087.098h-.369V5.19h.433c.006.017.017.029.017.04 0 .029-.006.052-.006.08-.017.006-.029.017-.046.017-.063 0-.127-.006-.196-.011-.058 0-.081.029-.081.086 0 .052.035.075.081.075l.225-.023zm-2.181-.07c-.069.023-.121.017-.167-.034-.069-.075-.092-.063-.19.029l.115.08c.035.017.081.023.115.04.104.04.144.103.144.207 0 .092-.046.155-.144.195-.167.063-.317-.006-.381-.189.052-.052.104-.034.156.006.023.023.04.052.069.069.052.034.133.006.15-.046.017-.04-.012-.092-.069-.115-.052-.017-.104-.029-.156-.052-.098-.046-.144-.132-.133-.218.017-.092.104-.167.202-.178.162-.011.242.046.289.207zm8.379.517v-.712h.127v.299c.098-.063.144-.149.196-.23.058-.08.127-.092.231-.063l-.254.287.254.402c-.139.034-.162.029-.225-.075-.04-.075-.069-.155-.144-.212-.087.052-.058.132-.058.201.006.115.006.115-.127.103zm1.38-.528c-.069.029-.116.034-.162-.011-.017-.017-.029-.034-.046-.046-.046-.029-.115-.011-.133.029-.023.057.017.086.058.103.052.023.104.029.156.052.098.04.15.103.144.195-.006.098-.052.161-.144.201-.167.069-.323 0-.387-.189a.12.12 0 0 1 .167.029c.017.023.046.046.075.057.052.023.098 0 .133-.046.023-.04 0-.092-.063-.121-.052-.023-.11-.029-.156-.052a.19.19 0 0 1-.121-.247c.017-.08.075-.126.15-.144.104-.023.202-.017.277.075.023.034.035.075.052.115z"/><path d="M12.314 5.895l.219-.706c.035 0 .081-.011.121-.006.023.006.058.029.069.057l.202.626c0 .006-.006.017-.006.034h-.127c-.012-.023-.023-.04-.029-.063-.017-.08-.063-.109-.144-.109-.086 0-.121.029-.144.109-.023.086-.035.08-.162.057zm.214-.287h.185l-.081-.235h-.035l-.069.235zm-2.246.287c-.121.029-.139.029-.162-.046-.023-.103-.087-.132-.179-.115-.023.006-.046.006-.063.006-.035.063-.063.121-.11.172-.012.017-.063 0-.11-.006l.219-.718c.035 0 .075-.011.115-.006.029.006.069.029.081.057l.208.655zm-.398-.293c.063.011.11.034.167-.011l-.069-.241c-.081.08-.069.167-.098.253zm7.509.288c-.133.04-.139.04-.173-.063-.023-.08-.075-.092-.144-.092-.081 0-.115.023-.139.098-.029.098-.035.098-.156.063l.213-.701c.035 0 .075-.017.115-.006.029.006.069.029.081.057l.202.643zm-.214-.281c-.058-.092-.023-.189-.127-.253l-.063.253h.19z"/><path d="M16.279 5.189h.3c.144.011.213.115.202.258-.012.126-.098.195-.237.189-.121-.006-.121-.006-.11.115v.132c-.133.04-.15.034-.15-.08l-.006-.614zm.237.121c-.075 0-.092.017-.098.098-.006.086.017.109.081.115.075 0 .139-.04.144-.103.006-.057-.046-.103-.127-.109zm2.908.586l.213-.701c.029-.006.064-.006.098-.011.052-.006.087.017.104.069l.196.637c-.121.04-.133.034-.167-.063s-.04-.092-.15-.098c-.081-.006-.115.023-.133.103-.023.086-.035.086-.162.063zm.213-.287h.179c-.035-.092-.04-.184-.11-.27l-.069.27zm-4.057-.293v.178l.185-.011c.092 0 .098.006.086.126h-.271v.218c0 .04-.006.075-.052.086-.063.017-.104-.017-.104-.086v-.632c.15-.017.3 0 .456-.011v.138l-.3-.006zm-5.154.017c-.196-.029-.196-.029-.202-.121.075-.029.387-.034.543-.011-.006.034-.006.075-.012.115h-.167c-.046.098-.017.195-.023.287-.006.098 0 .189 0 .299h-.139v-.568zm8.842.58c-.052 0-.092-.006-.144-.006v-.58c-.191-.017-.191-.017-.185-.144h.213.219c.104 0 .104.006.081.132-.058 0-.116.006-.185.011v.586zm-9.886-.586c-.19-.006-.19-.006-.196-.138l.156-.006.289-.006c.046 0 .087 0 .087.063 0 .057-.023.086-.087.08-.035-.006-.069 0-.115 0v.563c-.121.04-.144.034-.144-.075l.006-.373c.017-.034.012-.069.006-.109zm8.755-.143l.133.006v.666c0 .086-.069.063-.127.052l-.006-.724z"/></g><use href="#W" fill="url(#M)"/><use href="#W" x="4.352" fill="url(#N)"/><use href="#W" x="8.703" fill="url(#O)"/><use href="#W" x="12.974" fill="url(#O)"/><use href="#X" fill="url(#P)"/><use href="#X" x="0.917" fill="url(#Q)"/><use href="#X" x="1.829" fill="url(#R)"/><use href="#X" x="2.747" fill="url(#Q)"/><use href="#X" x="3.659" fill="url(#S)"/><use href="#X" x="4.576" fill="url(#Q)"/><use href="#X" x="5.488" fill="url(#S)"/><use href="#X" x="6.406" fill="url(#Q)"/><use href="#X" x="7.318" fill="url(#S)"/><use href="#X" x="8.235" fill="url(#T)"/><use href="#X" x="9.147" fill="url(#U)"/><use href="#X" x="10.065" fill="url(#T)"/><use href="#X" x="10.977" fill="url(#U)"/><use href="#X" x="11.894" fill="url(#P)"/><use href="#X" x="12.812" fill="url(#V)"/><use href="#W" fill="url(#M)"/><use href="#W" x="4.352" fill="url(#N)"/><use href="#W" x="8.703" fill="url(#O)"/><use href="#W" x="12.974" fill="url(#O)"/><use href="#W" fill="url(#M)"/><use href="#W" x="4.352" fill="url(#N)"/><use href="#W" x="8.703" fill="url(#O)"/><use href="#W" x="12.974" fill="url(#O)"/><path d="M4.01 17.003h.241 2.298l1.003.051c.401.04.762.188 1.037.502.138.16.229.348.298.547a1.79 1.79 0 0 1 .063.884c-.092.593-.43 1.015-1.009 1.22-.166.063-.344.103-.522.154 0 .051.052.063.092.086.206.131.407.268.556.462l.413.559.539.838.424.696c-.029.006-.052.017-.075.017-.418 0-.837-.006-1.249 0-.097 0-.149-.034-.201-.108l-.791-1.169-.579-.815c-.115-.154-.258-.285-.447-.348a.88.88 0 0 0-.212-.046l-.659-.04c-.017.291-.006.564-.006.844v.833.844h-1.22l.006-6.01zm1.226 2.526c.029.006.04.011.057.011l.934-.006.797-.029a.72.72 0 0 0 .579-.314.69.69 0 0 0 .103-.365c.023-.433-.183-.753-.676-.787-.281-.023-.567-.011-.848-.017l-.865-.011c-.023 0-.046.006-.075.011l-.006 1.505zm8.51 3.489h-.172-.865c-.08 0-.12-.023-.138-.097l-.08-.291c-.006-.023-.017-.046-.034-.085l-.097.085c-.464.411-1.003.553-1.61.456-.315-.051-.585-.177-.797-.416a1.16 1.16 0 0 1-.304-.747c-.006-.183.006-.359.063-.536.12-.336.35-.564.67-.701.292-.125.602-.177.911-.245l.957-.228c.04-.012.075-.034.109-.046.023-.143.006-.274-.034-.399a.38.38 0 0 0-.31-.274c-.16-.034-.321-.057-.487-.051-.309.011-.533.137-.659.422-.017.04-.04.08-.063.12l-.539-.097c-.166-.04-.35-.028-.516-.114.092-.2.16-.388.281-.559a1.4 1.4 0 0 1 .842-.57c.418-.108.842-.097 1.267-.063a1.94 1.94 0 0 1 .539.103c.206.074.401.177.556.342.103.108.166.245.206.393.12.439.075.884.08 1.329v1.329a1.58 1.58 0 0 0 .109.61l.103.251c0 .017 0 .046.011.08zm-1.381-2.087c-.057.006-.097.006-.132.017l-.43.12-.636.165c-.166.046-.298.154-.344.319-.097.319.132.661.464.73.201.04.384.006.556-.074.218-.097.395-.251.47-.49.08-.245.046-.508.052-.787zm5.944 2.087h-.848-.235a.1.1 0 0 1-.109-.08c-.023-.108-.057-.211-.086-.314-.006-.023-.017-.04-.034-.068l-.218.171c-.109.074-.212.16-.332.217-.344.16-.711.217-1.095.165a1.84 1.84 0 0 1-.344-.085c-.413-.148-.693-.433-.791-.861-.109-.468-.023-.895.344-1.237.161-.148.355-.239.562-.302.332-.103.676-.16 1.015-.228.223-.046.441-.114.665-.177.115-.034.126-.046.109-.165-.006-.074-.023-.142-.04-.217-.034-.194-.155-.308-.344-.342-.241-.046-.476-.085-.716-.006-.12.04-.229.085-.298.2-.046.074-.109.142-.132.234-.017.063-.057.08-.126.057-.092-.029-.189-.029-.281-.046l-.607-.108c-.023-.006-.04-.023-.057-.029.161-.627.539-1.009 1.106-1.146.436-.103.883-.091 1.324-.057.361.029.688.142.963.376.16.137.246.325.287.53.034.171.052.336.046.513-.006.143.023.291.023.433s-.017.279-.023.416c-.006.074 0 .154 0 .228l.011.536v.228c-.006.394.057.781.264 1.163zm-1.416-2.093l-.338.097-.831.211c-.178.051-.309.171-.355.348-.069.262.075.536.327.656.246.12.493.08.722-.034.212-.103.39-.251.447-.49.057-.245.057-.496.057-.747-.006-.011-.017-.023-.029-.04zm5.685-1.243c-.08.051-.854.205-1.1.217-.011-.023-.034-.051-.046-.08-.092-.274-.309-.388-.573-.416-.229-.023-.458-.028-.682.029a.58.58 0 0 0-.229.114c-.149.131-.126.331.057.41a3.02 3.02 0 0 0 .579.2c.459.114.917.2 1.352.382.189.08.373.177.51.336a.88.88 0 0 1 .246.593c.006.108-.006.217 0 .325.011.16-.057.302-.126.439a1.5 1.5 0 0 1-.653.639 2.05 2.05 0 0 1-.636.188c-.292.04-.59.063-.888.029-.344-.04-.676-.097-.98-.274-.384-.222-.636-.553-.779-.969-.006-.023-.012-.051-.017-.086l1.152-.177a1.49 1.49 0 0 1 .057.131c.092.291.292.473.59.525.241.046.481.04.722-.017a.58.58 0 0 0 .35-.222c.137-.188.04-.433-.155-.49l-.567-.148c-.458-.114-.917-.211-1.347-.422-.464-.228-.693-.69-.636-1.192.04-.359.206-.639.487-.855a1.58 1.58 0 0 1 .688-.291c.361-.068.728-.063 1.095-.04a2.33 2.33 0 0 1 .562.108c.35.108.625.319.791.65l.178.365zm2.201-2.572c.034.182 0 .342.006.502s0 .336 0 .502v.519c.023.006.057.023.092.023h.539c.052 0 .109.011.178.017v.445.445c-.034.006-.063.017-.092.017h-.59c-.04 0-.086.011-.12.017v.827l.006.684v.433l.029.365c.023.16.126.245.287.251.132.006.252-.034.373-.074l.103-.028.063.593c.006.074.023.148.034.228.006.063-.023.097-.08.108-.401.12-.802.194-1.215.091-.252-.063-.487-.165-.613-.416-.08-.154-.109-.319-.12-.485l-.023-.599v-1.887c0-.028-.006-.063-.006-.103h-.33-.109c-.08-.006-.092-.023-.092-.103l.011-.547v-.262c.16-.017.332-.006.516-.011l.012-.108v-.673c0-.069.017-.108.08-.143l.831-.479a2.74 2.74 0 0 1 .229-.148z" fill="#c42c2c"/><g fill="#095434"><path d="M14.033 26.662c-.006.023-.006.046-.023.063-.16.194-.332.371-.579.473l-.969.422c-.04.017-.08.04-.12.063-.103.063-.166.143-.172.274l-.034 1.369.023.49c.012.125.12.245.235.274.097.023.183 0 .241-.086.034-.051.063-.114.074-.171.029-.165.069-.331.069-.502l-.011-.901c0-.16.069-.297.149-.428.063.029.04.074.04.114l.011.986c.006.137.017.274.103.393.04.057.086.108.166.126l.069-.205c.029-.085.069-.103.155-.08.109.034.178.114.178.228.006.171-.057.325-.137.468-.115.194-.309.228-.499.114-.057-.034-.109-.08-.166-.131l-.103.262a1.41 1.41 0 0 1-.12.2c-.098.131-.229.177-.39.137-.12-.028-.246-.194-.258-.342-.006-.051 0-.103-.006-.148s-.017-.074-.029-.12c-.029.017-.04.023-.046.034-.075.2-.235.319-.418.388-.533.194-1.083.257-1.645.148a.67.67 0 0 1-.201-.08c-.086-.046-.132-.125-.143-.217a1.75 1.75 0 0 1 .046-.65c.006-.04.023-.08.069-.063.023.006.04.046.046.074.006.051 0 .108 0 .165-.006.091.034.148.12.177.075.023.149.051.224.063.304.057.602.091.911.051.206-.023.413-.04.607-.091.069-.017.138-.046.206-.08.143-.08.247-.188.247-.365l.029-.587.006-.741c.029-.314.149-.593.43-.77.16-.103.338-.182.516-.262l.739-.331c.086-.04.16-.103.246-.148l.103-.051c0-.023.006-.017.011-.006zm12.935 2.418c.046.04.029.086.017.131l-.132.485a.9.9 0 0 0 .017.536c.075.205.281.348.499.365.768.068 1.353-.639 1.381-1.192l.017-.901.011-1.118c0-.034.011-.074.029-.103l.178-.371c.006-.011.023-.023.04-.034.046.057.023.108.011.16-.046.291-.074.587-.069.884.006.108.046.194.149.239.166.068.287.006.332-.165.006-.029 0-.068.017-.091.023-.034.057-.074.092-.085.023-.006.08.034.092.063a.41.41 0 0 1 .046.183c.006.205-.052.388-.201.536-.132.131-.287.194-.47.114-.017-.006-.04-.011-.063-.011l-.023.411c-.029.473-.201.889-.447 1.289-.109.177-.241.336-.395.468-.269.228-.579.331-.928.257-.281-.057-.441-.251-.51-.519-.063-.245-.046-.496-.006-.747.046-.251.143-.49.235-.724a.09.09 0 0 1 .04-.051c.011-.006.029-.006.04-.006zm-7.507-.588c.04.006.052.006.057.011.063.103.16.103.264.097a.36.36 0 0 0 .252-.125c.132-.131.189-.297.247-.468l.178-.445a.29.29 0 0 1 .069-.085c.08.051.04.108.034.16-.012.08-.029.16-.023.239a.26.26 0 0 0 .137.234l.143-.211c.057-.08.086-.085.172-.034.098.057.138.143.109.257a.82.82 0 0 1-.287.456c-.143.125-.424.114-.51-.074-.006-.017-.023-.034-.046-.063-.046.091-.075.188-.132.251-.063.069-.143.131-.229.165s-.183.034-.287.046l-.011.16a2.45 2.45 0 0 1-.384 1.209 2.44 2.44 0 0 1-.441.553 1.13 1.13 0 0 1-.734.302c-.418.011-.676-.217-.751-.627-.04-.205-.017-.41.023-.61.052-.268.138-.53.252-.775l.052-.086c.069.023.057.063.046.103l-.12.365a1.7 1.7 0 0 0-.069.542c.006.331.269.53.556.553.487.034.854-.171 1.14-.553.206-.274.292-.582.269-.924-.006-.103-.029-.2-.023-.297 0-.103.029-.211.046-.325zm-17.217-.034c.069.165.189.154.304.143.12-.011.206-.085.275-.183.109-.148.16-.314.212-.485.046-.131.115-.257.172-.382.011-.023.04-.04.069-.063.046.068.023.125.006.182-.029.103-.029.205.006.308.017.057.04.108.115.137l.201-.279c.224.051.275.154.201.359-.052.131-.115.245-.212.348-.092.091-.195.125-.327.114a.28.28 0 0 1-.218-.125c-.017-.029-.04-.057-.075-.103-.086.342-.292.496-.625.468-.006.023-.017.04-.017.057.006.456-.12.872-.344 1.266-.12.211-.258.405-.436.576-.212.205-.464.325-.757.342-.436.028-.711-.228-.774-.627-.069-.411.046-.793.178-1.175.029-.085.069-.165.109-.251.011-.017.029-.029.052-.051.046.051.023.097.011.143l-.166.633a.74.74 0 0 0-.006.297c.046.285.281.479.579.49.522.017.9-.222 1.181-.644.218-.331.252-.696.195-1.078-.011-.131.017-.257.092-.416zm6.213-.85c-.011.046-.011.074-.029.097l-.166.251c-.04.046-.097.08-.149.114l-.298.165c-.063.034-.12.08-.172.143.034 0 .063.006.097.006.138 0 .241.08.246.217a.85.85 0 0 1-.046.268c-.126.388-.395.627-.791.69-.218.034-.384.12-.522.285a.8.8 0 0 1-.373.268c-.12.034-.206.12-.269.222-.097.154-.206.302-.281.468-.241.502-.642.815-1.146 1.026-.023.011-.057.006-.086.011-.017-.074.04-.086.075-.108.246-.165.476-.354.688-.565.16-.171.304-.354.407-.564l.298-.57c.092-.177.224-.319.418-.399.063-.023.092-.068.109-.131l.218-.69a1.52 1.52 0 0 1 .103-.268c.092-.177.281-.24.441-.148.052.029.086.074.138.126a.46.46 0 0 0 .046-.057c.229-.359.527-.639.923-.815.017-.028.057-.028.12-.04zm-1.845 1.887c.034-.006.057-.006.069-.011a1.25 1.25 0 0 0 .51-.616c.011-.029.017-.074 0-.091-.046-.051-.097-.114-.16-.131-.069-.023-.126.04-.16.103-.023.046-.052.086-.069.137l-.189.61zm.481-.125c.023 0 .04.006.052 0 .166-.063.332-.137.458-.268.063-.068.109-.154.149-.239.029-.063.006-.125-.052-.171-.057-.04-.109-.046-.166-.006a.6.6 0 0 0-.126.12c-.04.057-.069.131-.103.194-.063.125-.138.245-.212.371zm18.597-1.738c-.069.171-.132.331-.304.422l-.453.262c-.011.006-.023.023-.046.051.04.006.063.017.086.017.183.006.298.12.269.297a1.01 1.01 0 0 1-.825.878l-.229.04c-.052.011-.103.04-.143.074a2.05 2.05 0 0 0-.224.222.7.7 0 0 1-.315.211.51.51 0 0 0-.269.217l-.309.519c-.241.49-.648.781-1.129.986-.023.011-.052 0-.075 0-.023-.063.023-.074.057-.097.321-.205.613-.451.854-.747.098-.12.178-.257.252-.388l.321-.616a.72.72 0 0 1 .361-.342c.075-.034.12-.08.143-.148l.195-.627c.04-.114.074-.234.132-.342a.31.31 0 0 1 .413-.143c.052.029.097.08.166.148l.034-.074c.224-.354.516-.633.906-.81.04-.017.086-.057.132-.011zm-1.805 1.859c.017 0 .034.006.046 0a1.24 1.24 0 0 0 .516-.604c.04-.091-.006-.177-.103-.222-.075-.04-.16-.011-.212.068-.029.046-.052.097-.069.148l-.183.559c0 .011.006.034.006.051zm.476-.12c.023 0 .046.011.057 0l.413-.234c.092-.063.149-.16.183-.268.023-.069 0-.125-.057-.171-.052-.04-.115-.046-.166-.006-.046.034-.098.074-.126.12l-.304.559zm-4.855-3.77h-.229c-.006-.034-.006-.063-.006-.097v-.49-.068c-.011-.097-.086-.177-.172-.188-.092-.011-.183.046-.212.154a.62.62 0 0 0-.023.148l.006.451c0 .091-.006.103-.097.103-.034 0-.063 0-.097-.006-.006 0-.017-.006-.034-.017v-1.032c.029-.006.052-.006.075-.006h.126l.029.126c.098-.074.178-.154.304-.148s.212.068.309.194c.029-.046.046-.085.075-.114a.36.36 0 0 1 .39-.051c.12.051.189.154.189.279v.713c0 .017-.011.034-.023.063l-.195-.017v-.45c0-.074 0-.148-.017-.217-.023-.125-.103-.194-.201-.188s-.183.097-.195.217c-.006.091 0 .183 0 .274v.371zm9.016-1.043l.029.114c.206-.205.401-.194.602.046.017-.034.029-.063.046-.08.109-.114.246-.125.395-.085.132.04.201.142.206.262.017.262.006.525.006.787h-.218c-.006-.04-.006-.068-.006-.097v-.536c0-.114-.075-.2-.172-.217-.092-.017-.178.04-.212.148a.43.43 0 0 0-.023.148v.439.091c-.075.051-.143.029-.224.011v-.091-.508c0-.029-.006-.057-.011-.08-.029-.097-.126-.177-.212-.165a.21.21 0 0 0-.183.205v.536.097c-.08.034-.16.034-.235 0v-1.026h.212zM.043 24.222l.671.006c.183.017.332.177.344.388.006.12.011.239-.069.342-.097.125-.218.205-.384.205H.29v.439H.049l-.006-1.38zm.246.222v.49h.264c.023 0 .046 0 .069-.006a.28.28 0 0 0 .212-.251c-.006-.114-.103-.222-.212-.228s-.218-.006-.332-.006zm24.272-.075l-.115.177-.269-.125a.24.24 0 0 0-.189.006c-.069.029-.115.074-.12.154 0 .074.04.12.103.148s.126.046.195.069l.229.085a.32.32 0 0 1 .201.325c0 .165-.063.291-.212.371-.132.068-.269.085-.413.046-.195-.057-.298-.114-.396-.222l.132-.165.206.131c.086.046.178.074.275.046.103-.029.172-.085.178-.165.006-.097-.063-.137-.137-.165l-.224-.074c-.04-.011-.08-.023-.115-.04-.195-.08-.275-.2-.258-.388.017-.2.126-.337.327-.371a.65.65 0 0 1 .602.16zm-8.848 1.238h-.223v-1.369c.006-.006.011-.017.017-.017l.63.006c.138.006.246.085.304.205.137.279.057.679-.384.724-.103.011-.212 0-.327 0-.04.148.011.291-.017.45zm.011-1.163v.485h.281c.017 0 .034 0 .057-.006.126-.023.206-.12.206-.251 0-.114-.08-.217-.195-.228-.12-.006-.229 0-.35 0zm-12.615.114l-.395.428.39.604c-.143.057-.258.029-.332-.091l-.201-.325c-.201.086-.126.268-.149.428h-.229v-1.448h.235v.422.433l.069-.063c.069-.08.143-.16.195-.245.097-.148.235-.171.418-.142z"/><path d="M28.097 25.43c-.069.16-.338.245-.493.205-.275-.069-.459-.331-.407-.61a.83.83 0 0 1 .103-.291c.103-.16.258-.222.453-.194a.44.44 0 0 1 .373.319 1.08 1.08 0 0 1 .034.188c.012.114 0 .131-.115.125-.189 0-.373-.006-.562-.011-.011 0-.029.006-.046.011-.006.12.063.194.155.234a.3.3 0 0 0 .378-.108l.126.131zm-.172-.428c-.04-.188-.143-.279-.275-.268-.12.011-.218.125-.218.268h.493zm-7.398.16c-.011.12.046.2.132.24.143.068.275.034.395-.091l.149.125c-.137.16-.298.239-.493.205a.48.48 0 0 1-.401-.354.66.66 0 0 1 .029-.479.45.45 0 0 1 .413-.274.43.43 0 0 1 .43.262.63.63 0 0 1 .057.376c-.235 0-.464.011-.711-.011zm.481-.16c-.029-.177-.132-.274-.264-.268-.12.011-.223.131-.218.268h.481zm-19.222-.016c-.023-.171-.149-.268-.298-.234-.075.017-.149.046-.241.068l-.052-.165c.011-.017.011-.029.017-.034a.72.72 0 0 1 .585-.034c.075.029.132.086.155.16a1.22 1.22 0 0 1 .052.251v.49c0 .051.011.103-.057.12-.075.017-.143-.011-.178-.074-.109.034-.201.085-.298.097-.206.023-.367-.12-.373-.314-.006-.205.132-.353.344-.359l.344.028zm-.218.137c-.023 0-.063 0-.103.012-.075.017-.138.085-.143.148-.006.074.046.137.132.171.115.04.258-.023.315-.148.052-.108.023-.16-.097-.171-.029-.006-.057-.012-.103-.012zm15.623.388l-.097.074a.39.39 0 0 1-.447-.034c-.109-.097-.138-.251-.075-.399.057-.125.172-.177.298-.188.092-.006.189.017.281.028.017 0 .034 0 .057-.006.029-.074-.011-.125-.057-.165a.26.26 0 0 0-.229-.068c-.075.017-.149.046-.235.068l-.063-.188c.034-.017.069-.046.097-.051.103-.017.206-.034.309-.034a.36.36 0 0 1 .401.399v.479c0 .04.012.086 0 .12-.006.023-.034.063-.052.063-.063 0-.16.028-.189-.097zm-.218-.051c.115 0 .223-.091.252-.2.017-.069 0-.108-.069-.125a.79.79 0 0 0-.201-.011c-.109.006-.189.085-.183.177.006.097.092.165.201.16zm-11.691-.64l-.063-.2c.201-.074.39-.108.585-.04.149.051.229.171.235.325v.678c-.16.046-.201.046-.258-.068-.023.023-.046.04-.069.057-.138.091-.275.086-.418.011-.109-.057-.172-.188-.155-.314.017-.16.109-.268.258-.297.103-.023.218 0 .327.006.023 0 .052.011.075.011.017-.108-.011-.177-.097-.217-.069-.028-.138-.051-.212-.023s-.126.046-.206.068zm.315.302c-.023 0-.069 0-.103.011-.075.017-.132.086-.138.154-.006.057.046.125.115.154.109.051.252-.006.321-.114.069-.12.034-.188-.103-.2-.029-.006-.052-.006-.092-.006zm7.175-.131c.017-.165-.109-.274-.275-.245a3.32 3.32 0 0 0-.241.068l-.069-.194a.79.79 0 0 1 .59-.046c.115.034.189.131.206.251a1.24 1.24 0 0 1 .011.205v.553c-.16.046-.189.034-.252-.068-.034.023-.063.051-.097.074-.126.085-.327.068-.447-.04-.109-.097-.138-.257-.069-.399.052-.114.155-.171.269-.182.103-.011.212-.023.309.029.029 0 .046-.006.063-.006zm-.178.137c-.034 0-.063-.006-.097 0-.092.011-.172.091-.172.171s.08.154.178.165.212-.051.264-.143c.063-.114.029-.183-.103-.194-.023-.006-.046 0-.069 0z"/><path d="M22.04 25.601v-.593a.48.48 0 0 0-.017-.131c-.029-.086-.097-.12-.178-.125s-.155.034-.183.114c-.023.063-.034.131-.034.2v.519c-.075.046-.149.034-.224.006v-1.038h.195l.034.108c.017-.006.034-.006.046-.011a.35.35 0 0 1 .241-.12.33.33 0 0 1 .373.337c.023.222.006.445.006.667 0 .046-.023.08-.075.08l-.183-.011zm-12.242 0h-.235v-1.038h.212c.006.028.017.063.029.103.017-.006.034-.006.046-.017.103-.131.241-.143.384-.091.137.046.201.154.212.291l.017.411v.342h-.241v-.365c0-.097.006-.194-.006-.285-.006-.097-.08-.171-.172-.188-.086-.017-.178.034-.218.125-.017.04-.023.086-.023.131v.462c-.006.034-.006.068-.006.12zm7.708-1.049h.247l.252.741h.029l.241-.741h.246l-.155.422-.235.644a.67.67 0 0 1-.046.114c-.109.217-.315.268-.533.125l.063-.154a.17.17 0 0 1 .074.011c.063.023.12.029.178-.028.052-.051.029-.103.006-.165l-.355-.889c0-.023 0-.046-.012-.08zm7.921.001h.218c0 .028.006.057-.006.08l-.372 1.026c-.006.023-.017.046-.023.063-.109.228-.298.279-.527.143a.45.45 0 0 1 .029-.085l.04-.08c.034.011.063.017.092.023.057.011.109.011.149-.04.046-.051.034-.097.017-.154l-.372-.924c-.006-.017-.006-.034-.006-.057h.235l.143.382c.04.12.075.245.132.365.086-.114.08-.251.132-.365l.12-.376zm-12.219.005h.201l.017.125c.029-.017.052-.023.063-.04.092-.108.206-.125.338-.103.115.023.189.085.229.194.017.057.034.114.034.171v.616c0 .023-.006.046-.011.074h-.212c0-.029-.006-.063-.006-.091v-.462a.45.45 0 0 0-.017-.12c-.023-.103-.109-.177-.201-.171a.22.22 0 0 0-.206.171c-.011.051-.011.108-.011.165v.513h-.218v-1.043zm-6.104 1.044h-.218V25.1c0-.057 0-.108-.011-.165-.017-.103-.103-.183-.195-.183-.097-.006-.189.069-.218.177-.011.034-.006.074-.006.108v.547c-.08.034-.08.034-.229.017v-1.044h.201c.011.034.017.068.029.108.023-.006.046-.011.052-.023a.3.3 0 0 1 .241-.108c.189-.006.338.108.35.297.017.251.006.502.006.77zm-3.433-.286l.287.114c.023.011.052.011.08.006.057-.006.109-.029.12-.091.011-.068-.029-.103-.086-.12l-.235-.074c-.189-.074-.264-.257-.166-.433.029-.051.075-.097.12-.126.155-.091.401-.051.55.08-.017.034-.029.074-.052.108l-.04.057c-.057-.029-.109-.057-.166-.074-.052-.017-.109-.023-.16-.017a.12.12 0 0 0-.08.074c-.006.028.023.074.052.097.034.029.08.04.126.057.069.029.149.051.212.091.189.12.189.393 0 .513-.103.068-.218.091-.344.051-.109-.034-.218-.063-.315-.16l.097-.154z"/><path d="M10.56 25.471l.092-.154.287.114c.034.011.075.011.109 0 .04-.017.086-.051.092-.08s-.029-.086-.063-.103c-.046-.029-.103-.04-.155-.063l-.155-.057c-.126-.063-.178-.171-.161-.302s.103-.228.229-.262c.155-.04.321-.011.481.097l-.074.182-.132-.069a.95.95 0 0 0-.183-.034c-.052-.006-.092.029-.103.074-.011.051.023.085.063.108.034.017.069.028.103.04l.212.091c.212.085.172.45.006.525-.057.029-.12.057-.178.063-.172 0-.332-.051-.47-.171zm15.778-.634c-.052-.028-.092-.051-.132-.063-.063-.017-.126-.034-.183-.029-.034 0-.08.046-.098.08-.011.023.029.074.057.097s.074.034.109.051l.212.091c.103.057.16.148.149.268s-.075.211-.183.268c-.138.068-.275.057-.413 0-.075-.029-.143-.063-.201-.131l.092-.16.12.074a.39.39 0 0 0 .264.051c.057-.006.092-.04.103-.097s-.029-.085-.075-.103l-.126-.051c-.029-.011-.063-.017-.092-.028-.195-.068-.264-.188-.223-.393.029-.143.178-.239.35-.228a.95.95 0 0 1 .252.057c.097.034.103.057.057.154-.006.029-.023.051-.04.091zm-18.724.628l.103-.16c.052.034.092.069.138.086a1.04 1.04 0 0 0 .224.046c.057.006.109-.034.12-.091.011-.063-.034-.091-.086-.108l-.143-.051a.84.84 0 0 1-.155-.063c-.126-.068-.172-.171-.149-.325.023-.131.103-.217.241-.245a.64.64 0 0 1 .373.046c.097.04.097.051.052.154l-.04.08c-.046-.023-.086-.046-.138-.063a.59.59 0 0 0-.201-.029c-.029 0-.08.046-.086.074s.023.074.052.097.075.034.109.051c.074.034.155.057.224.097a.27.27 0 0 1 .143.262.32.32 0 0 1-.178.274c-.109.057-.218.063-.332.029-.086-.04-.189-.069-.269-.16zm-2.831-.696v.536c.006.091.063.125.155.108.029-.006.052-.017.075-.023.011.011.023.017.023.023.017.165.006.194-.12.222-.143.034-.298-.034-.338-.165-.023-.069-.029-.143-.029-.217v-.468l-.115-.029v-.194l.115-.023v-.274c.034-.006.052-.011.075-.011.149 0 .183-.046.16.182-.006.029 0 .063 0 .108h.264v.222h-.264zm17.732.017l-.126-.034v-.188l.12-.029v-.251c.012-.011.017-.023.029-.023.212-.023.212-.023.201.188-.006.086.006.103.097.103l.172-.006v.222h-.264v.279l-.006.177c-.006.16.057.205.206.16.011-.006.029-.006.04-.006.006.006.017.011.017.023.029.171-.023.234-.201.234-.172.006-.292-.108-.292-.291v-.479c.006-.023.006-.046.006-.08zm6.385 5.291c.143.051.252.143.367.245l.275-.302.315.239c.034.029.04.063.011.097l-.252.308-.378-.251-.223.274-.39-.251.275-.359zm-26.438.553l-.39-.245.258-.365c.155.034.252.148.378.239l.269-.308.373.291-.298.359-.373-.257-.218.285zm17.148-.626l.372.251.252-.285c.137.057.223.154.327.234.04.034.029.074.006.108l-.247.291-.367-.262-.223.279-.384-.239c.075-.125.16-.245.264-.376z"/><path d="M26.636 24.786l-.126-.034-.006-.183.132-.034v-.257c.017-.011.023-.023.034-.023.212-.011.212-.011.201.194v.057c0 .011.006.017.012.04h.246v.217h-.258v.131.342c-.006.165.052.205.206.154.006 0 .017 0 .029-.006.075.137.052.2-.086.239-.16.051-.395-.046-.378-.285l-.006-.553zm-14.632.593c.074.211-.04.257-.206.257-.161 0-.252-.097-.258-.262l-.006-.49c0-.029-.006-.063-.006-.097l-.12-.028v-.188l.126-.028v-.274l.218-.011.017.296h.252v.217h-.258v.536c0 .074.074.12.149.103.023 0 .052-.017.092-.029zm2.556-1.118v.285h.235c.034.068.023.137.017.217h-.252v.165.314c0 .154.057.188.206.137.011-.006.029 0 .04-.006.006.017.011.028.011.04.011.165-.075.239-.241.211s-.252-.131-.241-.291c.011-.183 0-.371 0-.559-.046-.011-.08-.017-.126-.023v-.194c.034-.006.074-.017.126-.029v-.274a2.78 2.78 0 0 0 .223.006zm.316 5.52v-.319c.08-.029.98-.04 1.163-.011v.319l-1.163.011zm-5.783-5.565h.206v1.391H9.11c-.029-.086-.046-1.055-.017-1.391zm-5.651 1.397l-.212-.011v-1.043h.212v1.055zm21.635 5.001l-.373-.262.252-.285c.023-.023.08-.028.109-.017.109.046.201.12.298.211l-.287.354zm-16.975-.348l-.287.342-.373-.268.275-.291c.017-.017.063-.017.086-.006.109.051.212.114.298.222zm21.554.633l-.269.314c-.017.017-.063.017-.086.006l-.315-.228.241-.28c.046-.051.103-.04.149-.006l.281.194zM7.305 24.216h.246c0 .125.017.245-.017.371-.029.108-.109.154-.201.188-.04.011-.075.011-.092-.034-.011-.04-.011-.068.034-.091.063-.029.126-.063.126-.148-.034-.011-.063-.029-.097-.04v-.245zm-4.086-.051h.235v.222h-.235v-.222z"/></g><defs><linearGradient id="A" x1="6.238" y1="8.529" x2="23.389" y2="8.529" href="#Y"><stop stop-color="#067c43"/><stop offset="1" stop-color="#054c34"/></linearGradient><linearGradient id="B" x1="7.051" y1="13.054" x2="24.459" y2="13.054" href="#Y"><stop stop-color="#067c43"/><stop offset="1" stop-color="#054c34"/></linearGradient><linearGradient id="C" x1="7.282" y1="5.064" x2="22.462" y2="5.064" href="#Y"><stop stop-color="#067c43"/><stop offset="1" stop-color="#054c34"/></linearGradient><linearGradient id="D" x1="7.656" y1="1.678" x2="22.129" y2="1.678" href="#Y"><stop stop-color="#067c43"/><stop offset="1" stop-color="#054c34"/></linearGradient><linearGradient id="E" x1="6.249" y1="7.013" x2="23.477" y2="7.013" href="#Y"><stop stop-color="#067c43"/><stop offset="1" stop-color="#054c34"/></linearGradient><linearGradient id="F" x1="8.929" y1="12.059" x2="11.177" y2="12.059" href="#Y"><stop stop-color="#054c34"/><stop offset="1" stop-color="#067c43"/></linearGradient><linearGradient id="G" x1="5.992" y1="16.762" x2="22.852" y2="16.762" href="#Y"><stop stop-color="#067c43"/><stop offset="1" stop-color="#054c34"/></linearGradient><linearGradient id="H" x1="6.819" y1="15.858" x2="23.534" y2="15.858" href="#Y"><stop stop-color="#067c43"/><stop offset="1" stop-color="#054c34"/></linearGradient><linearGradient id="I" x1="7.241" y1="9.643" x2="22.48" y2="9.643" href="#Y"><stop stop-color="#067c43"/><stop offset="1" stop-color="#054c34"/></linearGradient><linearGradient id="J" x1="7.247" y1="3.52" x2="22.53" y2="3.52" href="#Y"><stop stop-color="#067c43"/><stop offset="1" stop-color="#054c34"/></linearGradient><linearGradient id="K" x1="18.212" y1="12.067" x2="20.465" y2="12.067" href="#Y"><stop stop-color="#054c34"/><stop offset="1" stop-color="#067c43"/></linearGradient><linearGradient id="L" x1="13.498" y1="12.067" x2="15.736" y2="12.067" href="#Y"><stop stop-color="#054c34"/><stop offset="1" stop-color="#067c43"/></linearGradient><linearGradient id="M" x1="7.906" y1="8.529" x2="8.647" y2="8.529" href="#Y"><stop stop-color="#067c43"/><stop offset="1" stop-color="#054c34"/></linearGradient><linearGradient id="N" x1="7.903" y1="8.529" x2="8.644" y2="8.529" href="#Y"><stop stop-color="#067c43"/><stop offset="1" stop-color="#054c34"/></linearGradient><linearGradient id="O" x1="7.901" y1="8.529" x2="8.641" y2="8.529" href="#Y"><stop stop-color="#067c43"/><stop offset="1" stop-color="#054c34"/></linearGradient><linearGradient id="P" x1="8.163" y1="4.376" x2="8.456" y2="4.376" href="#Y"><stop stop-color="#067c43"/><stop offset="1" stop-color="#054c34"/></linearGradient><linearGradient id="Q" x1="8.161" y1="4.376" x2="8.454" y2="4.376" href="#Y"><stop stop-color="#067c43"/><stop offset="1" stop-color="#054c34"/></linearGradient><linearGradient id="R" x1="8.163" y1="4.376" x2="8.457" y2="4.376" href="#Y"><stop stop-color="#067c43"/><stop offset="1" stop-color="#054c34"/></linearGradient><linearGradient id="S" x1="8.164" y1="4.376" x2="8.457" y2="4.376" href="#Y"><stop stop-color="#067c43"/><stop offset="1" stop-color="#054c34"/></linearGradient><linearGradient id="T" x1="8.162" y1="4.376" x2="8.455" y2="4.376" href="#Y"><stop stop-color="#067c43"/><stop offset="1" stop-color="#054c34"/></linearGradient><linearGradient id="U" x1="8.165" y1="4.376" x2="8.458" y2="4.376" href="#Y"><stop stop-color="#067c43"/><stop offset="1" stop-color="#054c34"/></linearGradient><linearGradient id="V" x1="8.16" y1="4.376" x2="8.453" y2="4.376" href="#Y"><stop stop-color="#067c43"/><stop offset="1" stop-color="#054c34"/></linearGradient><path id="W" d="M8.274 8.899a.37.37 0 0 0 .369-.368.37.37 0 0 0-.369-.367.37.37 0 0 0-.369.367.37.37 0 0 0 .369.368z"/><path id="X" d="M8.309 4.518c.08 0 .144-.064.144-.144s-.065-.144-.144-.144-.144.064-.144.144.065.144.144.144z"/><linearGradient id="Y" gradientUnits="userSpaceOnUse"/></defs></svg>
            </g>
            
            <!-- Ropay logo (Right) -->
            <g transform="translate(500, 950) scale(1.5)">
                <svg xmlns="http://www.w3.org/2000/svg" width="106" height="20" fill="none" xmlns:v="https://vecta.io/nano"><g clip-path="url(#A)"><g fill-rule="evenodd" fill="#007dc5"><path d="M46.98-.003H30.999a1.94 1.94 0 0 0-1.011.329 2.21 2.21 0 0 0-.796.8l-5.945 10.158a1.2 1.2 0 0 0-.166.564c0 .375.223.564.665.564h15.982a1.9 1.9 0 0 0 .987-.329 2.18 2.18 0 0 0 .796-.799l5.946-10.158a1.19 1.19 0 0 0 .166-.565c0-.376-.215-.563-.642-.563zM38.8 2.254l-4.613 7.9a2.21 2.21 0 0 1-.798.801c-.299.201-.649.315-1.01.329-.429 0-.643-.188-.642-.564a1.17 1.17 0 0 1 .17-.564l4.613-7.9a2.44 2.44 0 0 1 .807-.801 1.88 1.88 0 0 1 .997-.329c.428 0 .643.188.643.564a1.2 1.2 0 0 1-.167.564h0zm2.13 12.104c-.191-.33-.466-.605-.797-.8a1.95 1.95 0 0 0-1.011-.329H17.809l-.667-1.121h3.253c.361-.014.711-.128 1.01-.329a2.2 2.2 0 0 0 .798-.8l5.743-9.831a1.19 1.19 0 0 0 .166-.565c0-.375-.222-.563-.665-.563h-15.98a1.89 1.89 0 0 0-1 .329 2.23 2.23 0 0 0-.785.799L.289 18.039a1.99 1.99 0 0 0-.286 1.059.89.89 0 0 0 .236.613c.155.168.368.271.597.29h5.75c.27 0 .523-.204.761-.612l2.571-4.826 2.518 4.307a2.22 2.22 0 0 0 .798.801 1.95 1.95 0 0 0 1.011.329h28.85c.428 0 .642-.188.643-.565a1.2 1.2 0 0 0-.167-.565l-2.64-4.514zM14.07 10.65c-.294.202-.641.316-.999.329-.445 0-.666-.188-.666-.563a1.07 1.07 0 0 1 .194-.563l4.409-7.577a2.22 2.22 0 0 1 .796-.8c.299-.201.649-.314 1.011-.329.428 0 .643.188.642.563a1.18 1.18 0 0 1-.17.565l-4.408 7.576a2.43 2.43 0 0 1-.809.798zm52.643-6.702c0 .376.223.564.668.564h5.721a1.94 1.94 0 0 0 .988-.325 2.19 2.19 0 0 0 .799-.792l.662-1.13a2.46 2.46 0 0 1 .801-.807c.29-.203.635-.318.99-.331.428 0 .641.19.641.569a1.3 1.3 0 0 1-.15.569l-1.314 2.251a2.47 2.47 0 0 1-.812.796 1.91 1.91 0 0 1-1.004.328h-7.99a1.88 1.88 0 0 0-.999.33 2.44 2.44 0 0 0-.809.799l-2.64 4.514a1.19 1.19 0 0 0-.166.564c0 .375.221.564.666.564h15.98c.354-.016.696-.13.988-.329a2.19 2.19 0 0 0 .796-.799l5.946-10.158a1.21 1.21 0 0 0 .166-.565c0-.377-.214-.564-.641-.564H70.018a1.94 1.94 0 0 0-1.01.329 2.18 2.18 0 0 0-.796.8l-1.333 2.257a1.2 1.2 0 0 0-.166.564zm7.82 3.947l-1.326 2.262c-.191.33-.465.605-.797.799a1.95 1.95 0 0 1-1.012.329c-.427 0-.643-.188-.643-.565a1.2 1.2 0 0 1 .167-.565l1.332-2.256c.189-.328.459-.603.785-.8a1.89 1.89 0 0 1 .999-.329c.444 0 .666.188.667.563a1.16 1.16 0 0 1-.171.563zm30.823-7.897h-5.709c-.362.013-.712.127-1.011.328-.331.194-.606.469-.798.799l-5.278 9.03a2.21 2.21 0 0 1-.796.8 1.94 1.94 0 0 1-1.01.33c-.428 0-.642-.188-.642-.565a1.2 1.2 0 0 1 .167-.565l5.279-9.028a1.2 1.2 0 0 0 .167-.565c0-.377-.214-.564-.642-.564h-5.707a1.94 1.94 0 0 0-1.011.329 2.19 2.19 0 0 0-.796.8l-5.946 10.158a1.2 1.2 0 0 0-.166.564c0 .375.222.563.667.563h5.882l.008.017 1.756-.003a1.05 1.05 0 0 1 .466.121.78.78 0 0 1 .332.29c.023.026.04.057.049.09a.22.22 0 0 1 .003.102c-.007.033-.022.066-.043.093s-.049.049-.081.064c-.039.021-.081.036-.125.044H51.659c-.362.014-.712.128-1.011.329a2.19 2.19 0 0 0-.797.799l-2.639 4.515a1.18 1.18 0 0 0-.167.564c0 .376.212.564.641.564H93.78a1.93 1.93 0 0 0 1.011-.329 2.2 2.2 0 0 0 .798-.799l10.242-17.747a1.21 1.21 0 0 0 .166-.565c0-.376-.214-.563-.642-.563zM50.318 12.742a1.91 1.91 0 0 1 .986-.33h7.99c.361-.013.712-.127 1.01-.329a2.2 2.2 0 0 0 .798-.799l5.944-10.158a1.18 1.18 0 0 0 .166-.565c0-.377-.221-.564-.665-.564h-15.98a1.88 1.88 0 0 0-1 .329 2.24 2.24 0 0 0-.785.8l-6.87 11.448a2 2 0 0 0-.285 1.057 1.2 1.2 0 0 0 .166.659l3.14 5.29a.41.41 0 0 0 .145.167.43.43 0 0 0 .212.069c.269 0 .522-.204.761-.612l3.473-5.662a2.2 2.2 0 0 1 .795-.799zm1.18-2.584l4.61-7.903a2.2 2.2 0 0 1 .796-.799c.299-.201.649-.315 1.011-.329.429 0 .643.188.642.563-.008.199-.067.393-.17.564l-4.609 7.902c-.202.325-.479.6-.809.8-.294.201-.641.315-.999.329-.445 0-.666-.188-.666-.564a1.07 1.07 0 0 1 .195-.563z"/></g><g fill="#fff"><path d="M91.586 15.398h.834l.35 1.108h.027l.721-1.108h.833l-1.323 1.87-.145.858h-.742l.145-.858-.699-1.87zm-2.36 2.727h-.807l1.366-2.727h1.022l.452 2.727h-.807l-.269-1.976h-.022l-.936 1.976zm.032-1.076h1.516l-.097.554h-1.516l.097-.554zm-2.888 1.076l.457-2.727h1.188c.204 0 .376.04.516.12s.24.192.301.337.075.314.043.507-.104.367-.215.51a1.09 1.09 0 0 1-.422.329c-.171.077-.361.114-.573.114h-.71l.097-.575h.559a.58.58 0 0 0 .237-.045.42.42 0 0 0 .165-.131c.042-.056.069-.124.082-.203a.35.35 0 0 0-.017-.2c-.024-.055-.064-.099-.121-.128s-.129-.045-.216-.045h-.263l-.36 2.136h-.747zm-2.917 0l.457-2.727h.748l-.355 2.131h1.113l-.102.597h-1.861zm-2.529 0l.457-2.727h1.194c.21 0 .381.028.515.084s.229.135.285.237a.54.54 0 0 1 .05.361c-.018.099-.056.191-.116.273s-.132.151-.222.208a.86.86 0 0 1-.297.116l-.005.027a.61.61 0 0 1 .309.088.48.48 0 0 1 .194.226.59.59 0 0 1 .03.336.82.82 0 0 1-.184.398 1 1 0 0 1-.38.274c-.156.067-.333.1-.532.1h-1.296zm.85-.591h.35c.124 0 .221-.023.292-.071a.29.29 0 0 0 .128-.206c.011-.064.005-.118-.016-.162s-.058-.078-.109-.101-.115-.035-.192-.035h-.36l-.091.575zm.172-1.033h.307a.48.48 0 0 0 .177-.031c.053-.021.098-.05.133-.089s.057-.086.066-.141c.013-.085-.007-.15-.062-.194s-.126-.067-.218-.067h-.317l-.086.522zm-1.667-1.103h.747l-.293 1.747a1.11 1.11 0 0 1-.239.539 1.23 1.23 0 0 1-.476.35 1.63 1.63 0 0 1-.643.122c-.237 0-.438-.041-.602-.122a.77.77 0 0 1-.358-.35.89.89 0 0 1-.059-.539l.293-1.747h.748l-.282 1.683c-.013.084-.007.159.02.225s.07.118.13.156a.4.4 0 0 0 .218.056.52.52 0 0 0 .238-.056.51.51 0 0 0 .183-.156c.048-.066.079-.141.093-.225l.282-1.683zm-5.392 0h.833l.35 1.108h.027l.721-1.108h.834l-1.323 1.87-.145.858h-.742l.145-.858-.699-1.87zm-2.873 2.727l.457-2.727h1.194c.21 0 .381.028.515.084s.23.135.285.237a.54.54 0 0 1 .05.361c-.018.099-.056.191-.116.273s-.132.151-.222.208a.86.86 0 0 1-.297.116l-.005.027a.61.61 0 0 1 .309.088.48.48 0 0 1 .194.226.59.59 0 0 1 .03.336.82.82 0 0 1-.184.398 1 1 0 0 1-.38.274c-.156.067-.333.1-.532.1h-1.296zm.85-.591h.35c.124 0 .221-.023.292-.071a.29.29 0 0 0 .128-.206c.011-.064.005-.118-.016-.162s-.058-.078-.109-.101-.115-.035-.192-.035h-.36l-.091.575zm.172-1.033h.306a.48.48 0 0 0 .177-.031c.053-.021.098-.05.133-.089s.057-.086.066-.141c.013-.085-.007-.15-.062-.194s-.126-.067-.218-.067h-.317l-.086.522zm-3.477 1.624h-1.075l.457-2.727h1.032c.283 0 .52.056.71.169a.93.93 0 0 1 .405.483c.08.209.096.459.047.748-.047.279-.141.517-.284.715a1.39 1.39 0 0 1-.543.454c-.22.105-.469.157-.749.157zm-.223-.629h.272c.136 0 .258-.024.364-.071a.62.62 0 0 0 .269-.24c.072-.112.125-.267.157-.462.03-.185.029-.327-.003-.427s-.094-.171-.184-.21a.89.89 0 0 0-.351-.06h-.277l-.247 1.47zm-3.208.629l.457-2.727h1.984l-.102.597H67.23l-.075.469h1.135l-.102.597h-1.135l-.075.469h1.231l-.102.597h-1.979zm-2.565 0l.457-2.727h1.188c.204 0 .377.037.518.111s.242.18.304.318a.86.86 0 0 1 .044.498c-.032.195-.104.36-.214.494s-.249.234-.418.304a1.47 1.47 0 0 1-.567.103h-.71l.097-.575h.559c.088 0 .165-.011.231-.032s.12-.057.161-.104.068-.111.081-.189.006-.142-.019-.191a.23.23 0 0 0-.125-.109c-.058-.023-.13-.036-.216-.036h-.264l-.36 2.136h-.748zm1.823-1.252l.479 1.252h-.812l-.462-1.252h.796zm-4.178 1.252l.457-2.727h1.984l-.102.597H62.31l-.075.469h1.135l-.102.597h-1.135l-.075.469h1.231l-.102.597h-1.979zm-3.441 0l-.355-2.727h.834l.097 1.678h.021l.726-1.678h.656l.167 1.683h.021l.656-1.683h.834l-1.269 2.727h-.715l-.21-1.523h-.021l-.726 1.523h-.715zm-.651-1.316c-.05.296-.15.545-.298.746a1.44 1.44 0 0 1-.542.454 1.56 1.56 0 0 1-.682.153c-.258 0-.482-.055-.672-.166s-.328-.273-.415-.487-.104-.475-.052-.784c.048-.297.147-.546.296-.748a1.46 1.46 0 0 1 .544-.459 1.55 1.55 0 0 1 .687-.156c.256 0 .479.056.668.168s.328.276.414.491.104.479.052.79zm-.753-.085c.025-.156.027-.288.005-.394s-.067-.188-.136-.242a.44.44 0 0 0-.278-.083.65.65 0 0 0-.352.096c-.102.064-.187.156-.254.276s-.114.264-.141.433c-.029.158-.031.289-.008.394s.072.183.142.236.165.079.28.079c.131 0 .247-.031.347-.093a.73.73 0 0 0 .251-.27 1.31 1.31 0 0 0 .144-.43zm-4.619 1.401l.457-2.727h1.188c.204 0 .377.04.516.12a.69.69 0 0 1 .301.337c.061.145.075.314.043.507s-.104.367-.215.51a1.09 1.09 0 0 1-.422.329c-.171.077-.361.114-.573.114h-.71l.097-.575h.559a.58.58 0 0 0 .237-.045.42.42 0 0 0 .165-.131.46.46 0 0 0 .082-.203.35.35 0 0 0-.017-.2c-.024-.055-.064-.099-.121-.128s-.129-.045-.216-.045h-.264l-.36 2.136h-.747z"/></g></g><defs><clipPath id="A"><path fill="#fff" d="M0 0h106v20H0z"/></clipPath></defs></svg>
            </g>
        </svg>
        